<?xml version="1.0" standalone="no"?>
<!DOCTYPE svg PUBLIC "-//W3C//DTD SVG 20010904//EN"
 "http://www.w3.org/TR/2001/REC-SVG-20010904/DTD/svg10.dtd">
<svg version="1.0" xmlns="http://www.w3.org/2000/svg"
 width="512.000000pt" height="512.000000pt" viewBox="0 0 512.000000 512.000000"
 preserveAspectRatio="xMidYMid meet">
<metadata>
Created by potrace 1.11, written by Peter Selinger 2001-2013
</metadata>
<g transform="translate(0.000000,512.000000) scale(0.100000,-0.100000)"
fill="#000000" stroke="none">
<path d="M2415 5113 c-269 -32 -440 -80 -645 -183 -249 -125 -477 -320 -646
-555 -78 -109 -193 -336 -234 -463 -140 -436 -110 -897 84 -1307 87 -181 172
-305 328 -472 212 -228 285 -400 295 -696 l6 -157 398 0 399 0 0 960 0 960
-160 0 -160 0 0 160 0 160 480 0 480 0 0 -160 0 -160 -160 0 -160 0 0 -960 0
-960 399 0 398 0 6 157 c6 180 25 267 86 399 51 109 102 182 202 289 108 116
154 173 216 265 343 512 385 1195 109 1750 -244 488 -700 840 -1226 944 -154
30 -376 44 -495 29z m-655 -1753 l0 -160 -160 0 -160 0 0 160 0 160 160 0 160
0 0 -160z m1920 0 l0 -160 -160 0 -160 0 0 160 0 160 160 0 160 0 0 -160z"/>
<path d="M1679 937 c-106 -71 -106 -203 0 -274 l34 -23 845 0 c841 0 844 0
882 21 76 43 104 150 57 220 -12 18 -38 44 -56 56 l-34 23 -847 0 -847 0 -34
-23z"/>
<path d="M1999 297 c-52 -35 -79 -82 -79 -137 0 -55 27 -102 79 -137 l34 -23
525 0 c515 0 525 0 562 21 105 59 105 219 0 278 -37 21 -47 21 -562 21 l-525
0 -34 -23z"/>
</g>
</svg>
