<?xml version="1.0" standalone="no"?>
<!DOCTYPE svg PUBLIC "-//W3C//DTD SVG 20010904//EN"
 "http://www.w3.org/TR/2001/REC-SVG-20010904/DTD/svg10.dtd">
<svg version="1.0" xmlns="http://www.w3.org/2000/svg"
 width="580.000000pt" height="580.000000pt" viewBox="0 0 580.000000 580.000000"
 preserveAspectRatio="xMidYMid meet">
<metadata>
Created by potrace 1.11, written by Peter Selinger 2001-2013
</metadata>
<g transform="translate(0.000000,580.000000) scale(0.100000,-0.100000)"
fill="#000000" stroke="none">
<path d="M2590 5754 c-368 -44 -622 -120 -955 -284 -907 -446 -1506 -1322
-1596 -2331 -15 -176 -6 -484 20 -654 174 -1142 1008 -2072 2113 -2359 284
-74 529 -102 813 -93 200 7 291 17 470 52 556 111 1059 378 1455 775 237 236
400 458 542 735 155 304 241 573 293 915 22 145 30 465 16 625 -60 683 -344
1297 -821 1776 -246 247 -473 411 -774 559 -340 167 -592 241 -971 285 -159
18 -448 18 -605 -1z m672 -474 c679 -101 1268 -477 1653 -1055 77 -117 199
-359 249 -496 110 -302 162 -673 137 -989 -15 -185 -31 -283 -73 -450 -122
-489 -416 -947 -811 -1264 -289 -232 -655 -408 -1002 -479 -205 -43 -290 -51
-515 -51 -400 0 -720 73 -1065 244 -474 234 -845 599 -1079 1060 -426 841
-329 1851 247 2589 411 525 1003 844 1688 911 137 13 412 3 571 -20z"/>
<path d="M2664 4310 c-277 -48 -540 -181 -743 -375 -289 -277 -450 -647 -451
-1037 -1 -664 483 -1258 1143 -1400 147 -31 427 -31 574 0 575 124 1025 593
1124 1170 78 460 -83 933 -432 1267 -322 308 -783 451 -1215 375z"/>
</g>
</svg>
